# xmcd
#
# Track frame offsets:
#	150
#	653
#	20889
#	36096
#	62685
#	88972
#	107022
#	125990
#	162270
#	186822
#	219812
#	250667
#
# Disc length: 3580 seconds
# Revision: 4
# Processed by: cddbd v1.5.2PL0 Copyright (c) Steve Scherf et al.
# Submitted via: dBpowerAMP V12.0
#
DISCID=a10dfa0c
DTITLE=Usher - 8701 AVCD
DYEAR=2002
DGENRE=R&B
TTITLE0=Pop Ya Collar(G-Force Double Bass Flex)
TTITLE1=U Remind Me (Remix)
TTITLE2=U Got It Bad (Soulpower Remix)
TTITLE3=U Got It Bad (Tee's Latin Remix)
TTITLE4=U Got It Bad (Tee's Dub)
TTITLE5=U-Turn (The Almighty Mix)
TTITLE6=U Don't Have To Call (Pound Boys Boogie Vocal)
TTITLE7=U R The One
TTITLE8=DATA
TTITLE9=DATA
TTITLE10=DATA
TTITLE11=DATA
EXTD=
EXTT0=
EXTT1=
EXTT2=
EXTT3=
EXTT4=
EXTT5=
EXTT6=
EXTT7=
EXTT8=
EXTT9=
EXTT10=
EXTT11=
PLAYORDER=
